HIERARCHY
ROOT hip
{
  OFFSET 0.0 0.0 0.0
  CHANNELS 6 Xposition Yposition Zposition Zrotation Yrotation Xrotation
  JOINT torso
  {
    OFFSET 0.0 0.0 0.0
    CHANNELS 3 Zrotation Xrotation Yrotation
    JOINT neck
    {
      OFFSET -31.42098999999993 328.8025209999999 74.3554680000002
      CHANNELS 3 Zrotation Xrotation Yrotation
      JOINT head
      {
        OFFSET 3.3519900000001144 303.81732099999994 206.53942900000015
        CHANNELS 3 Zrotation Xrotation Yrotation
        End Site
        {
          OFFSET 0.0 0.0 0.0
        }
      }
    }
    JOINT left_collar
    {
      OFFSET -31.42098999999993 328.8025209999999 74.3554680000002
      CHANNELS 3 Zrotation Xrotation Yrotation
      JOINT left_upper_arm
      {
        OFFSET -124.490479 -8.162841999999841 8.226441000000023
        CHANNELS 3 Zrotation Xrotation Yrotation
        JOINT left_forearm
        {
          OFFSET -253.595764 -1.5758060000000569 105.0729980000001
          CHANNELS 3 Zrotation Xrotation Yrotation
          JOINT left_hand
          {
            OFFSET -269.48803699999996 0.1478270000000066 -55.346191999999974
            CHANNELS 3 Zrotation Xrotation Yrotation
            End Site
            {
              OFFSET 0.0 0.0 0.0
            }
          }
        }
      }
    }
    JOINT right_collar
    {
      OFFSET -31.42098999999993 328.8025209999999 74.3554680000002
      CHANNELS 3 Zrotation Xrotation Yrotation
      JOINT right_upper_arm
      {
        OFFSET 162.02484099999998 0.46441600000002836 2.2303470000001653
        CHANNELS 3 Zrotation Xrotation Yrotation
        JOINT right_forearm
        {
          OFFSET 240.01246700000004 -25.835875999999985 121.34179699999959
          CHANNELS 3 Zrotation Xrotation Yrotation
          JOINT right_hand
          {
            OFFSET 252.48539699999992 18.910399999999868 -67.53466800000001
            CHANNELS 3 Zrotation Xrotation Yrotation
            End Site
            {
              OFFSET 0.0 0.0 0.0
            }
          }
        }
      }
    }
  }
}
MOTION
Frames: 9
Frame Time: 0.01
-256.47347824592435 210.408690592573 1563.1270904219934 0.7596157591295243 0.05133854412593114 -0.8697197776285175 0.3012386506514609 -2.268766731599971 -0.2896981527065668 -4.40207028637021 -2.2170784679336117 3.064004723211048 0.0 0.0 0.0 5.805013764168698 -0.8502041528006182 10.604510775931104 43.27124622579745 10.762862985679275 18.097759535270708 46.184592211029475 -5.230301542638671 -10.993762362187303 0.0 0.0 0.0 1.9235350590058773 -0.18978824752826068 8.284607995414888 -37.48683130168896 4.823846107309418 -31.251528033445304 -64.82391614274988 -8.455766865969327 18.107271951239962 0.0 0.0 0.0
-256.4509842503201 210.36865050672682 1562.9796264436436 0.785828148468366 0.08934973131655626 -0.9336693789075965 0.25980206157489943 -2.313741550879111 -0.283898252277633 -4.430654780300034 -2.1933642825314306 3.083026745462758 0.0 0.0 0.0 5.815040287355442 -0.861389226988446 10.69814937662356 43.271401422952465 10.773029451985709 18.073787358851195 46.19540499465975 -5.232467997926552 -10.99189600780385 0.0 0.0 0.0 1.9343514602501521 -0.19169696646955556 8.333620848181917 -37.49007284809986 4.833084924118876 -31.232926285771747 -64.82387041752723 -8.460372025653644 18.09877010287145 0.0 0.0 0.0
-256.4289727680974 210.32862733682157 1562.8306718352262 0.8112555291163357 0.12646010958598802 -0.9957243714307545 0.21901276397137315 -2.357791058756141 -0.27813728524889214 -4.458531356005472 -2.1720000009732368 3.1016267224515617 0.0 0.0 0.0 5.825386171151906 -0.8722914822560662 10.789137586344044 43.2712980992493 10.782880651266627 18.050394721791637 46.20569559040149 -5.234611964296045 -10.989929891120404 0.0 0.0 0.0 1.9448673915128776 -0.19357506961734422 8.38194212665418 -37.493244495524046 4.841951946399028 -31.215107817210914 -64.82341339996562 -8.464820428105035 18.09045758941473 0.0 0.0 0.0
-256.40707047374144 210.28852675389734 1562.6792730742911 0.8354557946669373 0.16197307548916026 -1.0550209361444685 0.17932627279582633 -2.4002532383154622 -0.2724653823523558 -4.485508819067072 -2.154220176609803 3.11971231187327 0.0 0.0 0.0 5.836026741669877 -0.882764827313896 10.8762300150286 43.270906400969714 10.792253066915709 18.027948619950877 46.21526250321552 -5.236699824356943 -10.987882995632116 0.0 0.0 0.0 1.9549946380019683 -0.19540669259546575 8.429195305145655 -37.49637470204513 4.850276575604141 -31.198460566607753 -64.82250597772294 -8.46903892200762 18.082459584843015 0.0 0.0 0.0
-256.38484919342534 210.2482394045849 1562.5243834420535 0.857974317405844 0.19518701688476542 -1.1106978536020145 0.14121191696086216 -2.4404850819035553 -0.2669393521901139 -4.5114131222544005 -2.1413181715231815 3.1372054765616895 0.0 0.0 0.0 5.846919317311494 -0.8926675880512353 10.95822911323638 43.27021024464024 10.800998549418523 18.00678856549274 46.22392158991364 -5.238699029778707 -10.985776834211677 0.0 0.0 0.0 1.964653864572973 -0.19717608585344196 8.474983950845013 -37.499509447505304 4.85790099399604 -31.183353272342902 -64.8211125212175 -8.472955587124249 18.07489983553466 0.0 0.0 0.0
-256.3618309911565 210.2076473869381 1562.3648983865196 0.8783517369389217 0.22541162791522748 -1.1619147774533045 0.10514699523880484 -2.477879536655089 -0.26162270056278863 -4.536092029385507 -2.1346142169932234 3.154044621158297 0.0 0.0 0.0 5.858000678771145 -0.9018660375002351 11.03401650156784 43.269209393938866 10.808989520326888 17.98721571870204 46.23151233674502 -5.240578986704153 -10.983635241524945 0.0 0.0 0.0 1.9737763105016615 -0.1988678575648406 8.518894682306804 -37.50271226787513 4.864685594881092 -31.17012364463977 -64.81920241514266 -8.476501299912542 18.06789816380726 0.0 0.0 0.0
-256.33749294304977 210.1666302095423 1562.1996902658243 0.8961330987136062 0.2519847453313036 -1.2078726982891224 0.0716090128043496 -2.5118816954457786 -0.25658501511375204 -4.559420066903256 -2.135420018530053 3.17018677137172 0.0 0.0 0.0 5.86918547669155 -0.9102379159255677 11.102583657139622 43.26792076011785 10.81612315906346 17.96948391933042 46.23790367578014 -5.242311844034134 -10.98148426271058 0.0 0.0 0.0 1.98230552186206 -0.20046729639515495 8.560503400862373 -37.50606335374338 4.870513599720056 -31.159067833696785 -64.81675162794303 -8.479611265416304 18.06156804447842 0.0 0.0 0.0
-256.3112713653498 210.1250698931348 1562.0276409507699 0.9108782181812287 0.27428924741589167 -1.2478361436606047 0.041065983938465604 -2.542003763514391 -0.25190067906646413 -4.581303557005669 -2.1450006009166294 3.185609684971733 0.0 0.0 0.0 5.880365806756184 -0.9176758511632874 11.16306102332657 43.26637877725319 10.822324398860072 17.953792918480694 46.242999086511816 -5.243873137915111 -10.979352171234009 0.0 0.0 0.0 1.9901990905788796 -0.2019607704325692 8.59938475830252 -37.50965771085052 4.8752947218100475 -31.150431492005335 -64.81374424062238 -8.482226494761163 18.056014271938146 0.0 0.0 0.0
-256.28256534205264 210.08285495812342 1561.8476709812694 0.9221729913528063 0.2917694867370174 -1.2811563486013882 0.01396502516786863 -2.5678383698788854 -0.24764694802706017 -4.601685425992264 -2.164534165422794 3.2003137221738167 0.0 0.0 0.0 5.891412115167715 -0.9240905759103725 11.214744543396742 43.26463476950311 10.827547650496594 17.94028393874483 46.24674070400454 -5.245242253767916 -10.977269622452855 0.0 0.0 0.0 1.9974303115630259 -0.20333618392778569 8.635124419782672 -37.5136024435012 4.878967821150991 -31.14440257863769 -64.8101738350393 -8.484295209856374 18.05133072558496 0.0 0.0 0.0
